<mxfile host="app.diagrams.net" agent="Mozilla/5.0 (Windows NT 10.0; Win64; x64) AppleWebKit/537.36 (KHTML, like Gecko) Chrome/135.0.0.0 Safari/537.36" version="26.2.13">
  <diagram name="Page-1" id="4zYlkkAO9FzP-6ysB_OI">
    <mxGraphModel dx="1428" dy="785" grid="1" gridSize="10" guides="1" tooltips="1" connect="1" arrows="1" fold="1" page="1" pageScale="1" pageWidth="850" pageHeight="1100" math="0" shadow="0">
      <root>
        <mxCell id="0" />
        <mxCell id="1" parent="0" />
        <mxCell id="pLhc3mgL_XmlH9tGt781-1" value="Lecturers" style="shape=umlActor;verticalLabelPosition=bottom;verticalAlign=top;html=1;outlineConnect=0;" vertex="1" parent="1">
          <mxGeometry x="30" y="290" width="30" height="60" as="geometry" />
        </mxCell>
        <mxCell id="pLhc3mgL_XmlH9tGt781-4" value="Quản lý sinh viên" style="ellipse;whiteSpace=wrap;html=1;" vertex="1" parent="1">
          <mxGeometry x="240" y="150" width="85" height="60" as="geometry" />
        </mxCell>
        <mxCell id="pLhc3mgL_XmlH9tGt781-5" value="nhận/lấy bài đánh giá từ ntd" style="ellipse;whiteSpace=wrap;html=1;" vertex="1" parent="1">
          <mxGeometry x="340" y="350" width="100" height="60" as="geometry" />
        </mxCell>
        <mxCell id="pLhc3mgL_XmlH9tGt781-6" value="xuất bản điểm" style="ellipse;whiteSpace=wrap;html=1;" vertex="1" parent="1">
          <mxGeometry x="300" y="560" width="90" height="50" as="geometry" />
        </mxCell>
        <mxCell id="pLhc3mgL_XmlH9tGt781-7" value="thống kê" style="ellipse;whiteSpace=wrap;html=1;" vertex="1" parent="1">
          <mxGeometry x="470" y="210" width="90" height="50" as="geometry" />
        </mxCell>
        <mxCell id="pLhc3mgL_XmlH9tGt781-8" value="" style="ellipse;whiteSpace=wrap;html=1;" vertex="1" parent="1">
          <mxGeometry x="510" y="560" width="80" height="40" as="geometry" />
        </mxCell>
        <mxCell id="pLhc3mgL_XmlH9tGt781-11" value="" style="endArrow=none;html=1;rounded=0;entryX=0.071;entryY=0.783;entryDx=0;entryDy=0;entryPerimeter=0;exitX=0.5;exitY=0.5;exitDx=0;exitDy=0;exitPerimeter=0;" edge="1" parent="1" source="pLhc3mgL_XmlH9tGt781-1" target="pLhc3mgL_XmlH9tGt781-4">
          <mxGeometry width="50" height="50" relative="1" as="geometry">
            <mxPoint x="400" y="430" as="sourcePoint" />
            <mxPoint x="450" y="380" as="targetPoint" />
          </mxGeometry>
        </mxCell>
        <mxCell id="pLhc3mgL_XmlH9tGt781-12" value="" style="endArrow=none;html=1;rounded=0;entryX=0;entryY=0.5;entryDx=0;entryDy=0;exitX=0.5;exitY=0.5;exitDx=0;exitDy=0;exitPerimeter=0;" edge="1" parent="1" source="pLhc3mgL_XmlH9tGt781-1" target="pLhc3mgL_XmlH9tGt781-5">
          <mxGeometry width="50" height="50" relative="1" as="geometry">
            <mxPoint x="410" y="440" as="sourcePoint" />
            <mxPoint x="490" y="360" as="targetPoint" />
          </mxGeometry>
        </mxCell>
        <mxCell id="pLhc3mgL_XmlH9tGt781-13" value="" style="endArrow=none;html=1;rounded=0;entryX=0;entryY=0.5;entryDx=0;entryDy=0;exitX=0.5;exitY=0.5;exitDx=0;exitDy=0;exitPerimeter=0;" edge="1" parent="1" source="pLhc3mgL_XmlH9tGt781-1" target="pLhc3mgL_XmlH9tGt781-7">
          <mxGeometry width="50" height="50" relative="1" as="geometry">
            <mxPoint x="70" y="331" as="sourcePoint" />
            <mxPoint x="500" y="370" as="targetPoint" />
          </mxGeometry>
        </mxCell>
        <mxCell id="pLhc3mgL_XmlH9tGt781-14" value="tính toán điểm" style="ellipse;whiteSpace=wrap;html=1;" vertex="1" parent="1">
          <mxGeometry x="560" y="390" width="80" height="50" as="geometry" />
        </mxCell>
        <mxCell id="pLhc3mgL_XmlH9tGt781-15" value="lọc sinh viên theo trạng thái" style="ellipse;whiteSpace=wrap;html=1;" vertex="1" parent="1">
          <mxGeometry x="378" y="40" width="95" height="60" as="geometry" />
        </mxCell>
        <mxCell id="pLhc3mgL_XmlH9tGt781-16" value="" style="endArrow=none;html=1;rounded=0;entryX=0;entryY=0.5;entryDx=0;entryDy=0;exitX=0.5;exitY=0.5;exitDx=0;exitDy=0;exitPerimeter=0;" edge="1" parent="1" source="pLhc3mgL_XmlH9tGt781-1" target="pLhc3mgL_XmlH9tGt781-6">
          <mxGeometry width="50" height="50" relative="1" as="geometry">
            <mxPoint x="80" y="341" as="sourcePoint" />
            <mxPoint x="510" y="380" as="targetPoint" />
          </mxGeometry>
        </mxCell>
        <mxCell id="pLhc3mgL_XmlH9tGt781-17" value="" style="endArrow=none;html=1;rounded=0;entryX=0;entryY=0.5;entryDx=0;entryDy=0;exitX=0.5;exitY=0.5;exitDx=0;exitDy=0;exitPerimeter=0;" edge="1" parent="1">
          <mxGeometry width="50" height="50" relative="1" as="geometry">
            <mxPoint x="55" y="330" as="sourcePoint" />
            <mxPoint x="350" y="390" as="targetPoint" />
          </mxGeometry>
        </mxCell>
        <mxCell id="pLhc3mgL_XmlH9tGt781-18" value="" style="endArrow=classic;html=1;rounded=0;exitX=0.042;exitY=0.683;exitDx=0;exitDy=0;exitPerimeter=0;entryX=0.941;entryY=0.167;entryDx=0;entryDy=0;entryPerimeter=0;" edge="1" parent="1" source="pLhc3mgL_XmlH9tGt781-15" target="pLhc3mgL_XmlH9tGt781-4">
          <mxGeometry width="50" height="50" relative="1" as="geometry">
            <mxPoint x="390" y="230" as="sourcePoint" />
            <mxPoint x="440" y="180" as="targetPoint" />
          </mxGeometry>
        </mxCell>
        <mxCell id="pLhc3mgL_XmlH9tGt781-19" value="&amp;lt;&amp;lt;extend&amp;gt;." style="edgeLabel;html=1;align=center;verticalAlign=middle;resizable=0;points=[];" vertex="1" connectable="0" parent="pLhc3mgL_XmlH9tGt781-18">
          <mxGeometry x="-0.3781" y="-1" relative="1" as="geometry">
            <mxPoint as="offset" />
          </mxGeometry>
        </mxCell>
      </root>
    </mxGraphModel>
  </diagram>
</mxfile>
